<svg xmlns="http://www.w3.org/2000/svg" width="800" height="500" viewBox="0 0 800 500">
  <defs>
    <style>
      @import url('https://fonts.googleapis.com/css2?family=JetBrains+Mono:wght@400;700&amp;display=swap');
      text { font-family: "JetBrains Mono", "Fira Code", "Cascadia Code", monospace; }
    </style>
  </defs>

  <!-- Window shadow -->
  <rect x="4" y="4" width="800" height="500" rx="10" fill="#000" opacity="0.3"/>

  <!-- Window background -->
  <rect width="800" height="500" rx="10" fill="#1e1e2e"/>

  <!-- Title bar -->
  <rect width="800" height="38" rx="10" fill="#181825"/>
  <rect y="28" width="800" height="10" fill="#181825"/>

  <!-- Traffic lights -->
  <circle cx="20" cy="19" r="6" fill="#f38ba8"/>
  <circle cx="40" cy="19" r="6" fill="#f9e2af"/>
  <circle cx="60" cy="19" r="6" fill="#a6e3a1"/>

  <!-- Title text -->
  <text x="400" y="23" text-anchor="middle" fill="#6c7086" font-size="12">granit ~/vault</text>

  <!-- Line number gutter -->
  <rect x="0" y="38" width="48" height="432" fill="#11111b"/>

  <!-- Line numbers -->
  <text x="38" y="58" text-anchor="end" fill="#45475a" font-size="12">1</text>
  <text x="38" y="76" text-anchor="end" fill="#45475a" font-size="12">2</text>
  <text x="38" y="94" text-anchor="end" fill="#45475a" font-size="12">3</text>
  <text x="38" y="112" text-anchor="end" fill="#45475a" font-size="12">4</text>
  <text x="38" y="130" text-anchor="end" fill="#45475a" font-size="12">5</text>
  <text x="38" y="148" text-anchor="end" fill="#45475a" font-size="12">6</text>
  <text x="38" y="166" text-anchor="end" fill="#45475a" font-size="12">7</text>
  <text x="38" y="184" text-anchor="end" fill="#45475a" font-size="12">8</text>
  <text x="38" y="202" text-anchor="end" fill="#45475a" font-size="12">9</text>
  <text x="38" y="220" text-anchor="end" fill="#45475a" font-size="12">10</text>
  <text x="38" y="238" text-anchor="end" fill="#45475a" font-size="12">11</text>
  <text x="38" y="256" text-anchor="end" fill="#45475a" font-size="12">12</text>
  <text x="38" y="274" text-anchor="end" fill="#cba6f7" font-size="12">13</text>
  <text x="38" y="292" text-anchor="end" fill="#45475a" font-size="12">14</text>
  <text x="38" y="310" text-anchor="end" fill="#45475a" font-size="12">15</text>
  <text x="38" y="328" text-anchor="end" fill="#45475a" font-size="12">16</text>
  <text x="38" y="346" text-anchor="end" fill="#45475a" font-size="12">17</text>
  <text x="38" y="364" text-anchor="end" fill="#45475a" font-size="12">18</text>
  <text x="38" y="382" text-anchor="end" fill="#45475a" font-size="12">19</text>
  <text x="38" y="400" text-anchor="end" fill="#45475a" font-size="12">20</text>
  <text x="38" y="418" text-anchor="end" fill="#45475a" font-size="12">21</text>
  <text x="38" y="436" text-anchor="end" fill="#45475a" font-size="12">22</text>
  <text x="38" y="454" text-anchor="end" fill="#45475a" font-size="12">23</text>

  <!-- Gutter separator -->
  <line x1="48" y1="38" x2="48" y2="470" stroke="#313244" stroke-width="1"/>

  <!-- Cursor line highlight (line 13) -->
  <rect x="48" y="261" width="752" height="18" fill="#313244" opacity="0.5"/>

  <!-- Frontmatter block -->
  <text x="58" y="58" fill="#585b70" font-size="13">---</text>
  <text x="58" y="76" fill="#89b4fa" font-size="13">title</text>
  <text x="94" y="76" fill="#585b70" font-size="13">:</text>
  <text x="106" y="76" fill="#a6e3a1" font-size="13">Getting Started with Granit</text>
  <text x="58" y="94" fill="#89b4fa" font-size="13">tags</text>
  <text x="88" y="94" fill="#585b70" font-size="13">:</text>
  <text x="100" y="94" fill="#a6e3a1" font-size="13">[guide, tutorial, getting-started]</text>
  <text x="58" y="112" fill="#89b4fa" font-size="13">date</text>
  <text x="88" y="112" fill="#585b70" font-size="13">:</text>
  <text x="100" y="112" fill="#fab387" font-size="13">2026-03-08</text>
  <text x="58" y="130" fill="#585b70" font-size="13">---</text>

  <!-- Blank line -->
  <!-- Line 6: Heading -->
  <text x="58" y="166" fill="#cba6f7" font-size="13" font-weight="bold"># Getting Started with Granit</text>

  <!-- Blank line -->
  <!-- Line 8: Paragraph -->
  <text x="58" y="202" fill="#cdd6f4" font-size="13">Granit is a terminal-based knowledge manager built</text>
  <text x="58" y="220" fill="#cdd6f4" font-size="13">with Go and Bubble Tea. It supports </text>
  <text x="314" y="220" fill="#89dceb" font-size="13">**vim keybindings**</text>
  <text x="58" y="238" fill="#cdd6f4" font-size="13">for efficient text editing.</text>

  <!-- Blank line -->
  <!-- Line 12: Subheading -->
  <text x="58" y="274" fill="#f9e2af" font-size="13" font-weight="bold">## Key Features</text>

  <!-- Cursor block on line 13 -->
  <rect x="58" y="262" width="8" height="16" fill="#cba6f7" opacity="0.7"/>

  <!-- Blank line -->
  <!-- List items -->
  <text x="58" y="310" fill="#f38ba8" font-size="13">-</text>
  <text x="72" y="310" fill="#cdd6f4" font-size="13">Modal editing (Normal / Insert / Visual)</text>
  <text x="58" y="328" fill="#f38ba8" font-size="13">-</text>
  <text x="72" y="328" fill="#cdd6f4" font-size="13">Wikilinks with </text>
  <text x="186" y="328" fill="#89b4fa" font-size="13">[[autocomplete]]</text>
  <text x="58" y="346" fill="#f38ba8" font-size="13">-</text>
  <text x="72" y="346" fill="#cdd6f4" font-size="13">28 built-in color themes</text>
  <text x="58" y="364" fill="#f38ba8" font-size="13">-</text>
  <text x="72" y="364" fill="#cdd6f4" font-size="13">AI-powered bots (Ollama / OpenAI)</text>
  <text x="58" y="382" fill="#f38ba8" font-size="13">-</text>
  <text x="72" y="382" fill="#cdd6f4" font-size="13">Plugin system with script hooks</text>

  <!-- Blank line -->
  <!-- Code block -->
  <text x="58" y="418" fill="#585b70" font-size="13">```bash</text>
  <rect x="55" y="424" width="500" height="18" rx="3" fill="#11111b"/>
  <text x="62" y="438" fill="#a6e3a1" font-size="13">granit open ~/vault</text>
  <text x="58" y="456" fill="#585b70" font-size="13">```</text>

  <!-- Status bar -->
  <rect x="0" y="470" width="800" height="30" fill="#11111b"/>
  <rect x="0" y="490" width="800" height="10" rx="10" fill="#11111b"/>

  <!-- Vim mode indicator -->
  <rect x="0" y="470" width="120" height="30" fill="#a6e3a1" opacity="0.15"/>
  <text x="12" y="490" fill="#a6e3a1" font-size="12" font-weight="bold">-- NORMAL --</text>

  <!-- File name -->
  <text x="140" y="490" fill="#6c7086" font-size="11">getting-started.md</text>

  <!-- Encoding -->
  <text x="450" y="490" fill="#585b70" font-size="11">UTF-8</text>

  <!-- Word count -->
  <text x="520" y="490" fill="#585b70" font-size="11">42 words</text>

  <!-- Line/col position -->
  <text x="650" y="490" fill="#cba6f7" font-size="11">Ln 13, Col 1</text>

  <!-- Scrollbar hint -->
  <rect x="793" y="38" width="4" height="432" rx="2" fill="#313244"/>
  <rect x="793" y="38" width="4" height="180" rx="2" fill="#45475a"/>
</svg>