<svg xmlns="http://www.w3.org/2000/svg" width="800" height="500" viewBox="0 0 800 500">
  <defs>
    <style>
      @import url('https://fonts.googleapis.com/css2?family=JetBrains+Mono:wght@400;700&amp;display=swap');
      text { font-family: "JetBrains Mono", "Fira Code", "Cascadia Code", monospace; }
    </style>
  </defs>

  <!-- Window shadow -->
  <rect x="4" y="4" width="800" height="500" rx="10" fill="#000" opacity="0.3"/>

  <!-- Window background -->
  <rect width="800" height="500" rx="10" fill="#1e1e2e"/>

  <!-- Title bar -->
  <rect width="800" height="38" rx="10" fill="#181825"/>
  <rect y="28" width="800" height="10" fill="#181825"/>

  <!-- Traffic lights -->
  <circle cx="20" cy="19" r="6" fill="#f38ba8"/>
  <circle cx="40" cy="19" r="6" fill="#f9e2af"/>
  <circle cx="60" cy="19" r="6" fill="#a6e3a1"/>

  <!-- Title text -->
  <text x="400" y="23" text-anchor="middle" fill="#6c7086" font-size="12">granit ~/vault</text>

  <!-- Header bar -->
  <rect x="0" y="38" width="800" height="30" fill="#11111b"/>
  <text x="20" y="58" fill="#cba6f7" font-size="14" font-weight="bold">Task Manager</text>
  <text x="158" y="58" fill="#6c7086" font-size="14"> — </text>
  <text x="182" y="58" fill="#f9e2af" font-size="14">Kanban</text>
  <text x="680" y="58" fill="#585b70" font-size="11">3 / 7 tasks done</text>

  <!-- Column separators -->
  <line x1="267" y1="68" x2="267" y2="460" stroke="#313244" stroke-width="1"/>
  <line x1="534" y1="68" x2="534" y2="460" stroke="#313244" stroke-width="1"/>

  <!-- Column headers -->
  <!-- To Do -->
  <rect x="10" y="78" width="247" height="26" rx="4" fill="#45475a"/>
  <text x="80" y="96" fill="#f38ba8" font-size="12" font-weight="bold">TO DO</text>
  <rect x="220" y="83" width="28" height="16" rx="8" fill="#f38ba8" opacity="0.2"/>
  <text x="234" y="95" text-anchor="middle" fill="#f38ba8" font-size="10">3</text>

  <!-- In Progress -->
  <rect x="277" y="78" width="247" height="26" rx="4" fill="#45475a"/>
  <text x="340" y="96" fill="#f9e2af" font-size="12" font-weight="bold">IN PROGRESS</text>
  <rect x="487" y="83" width="28" height="16" rx="8" fill="#f9e2af" opacity="0.2"/>
  <text x="501" y="95" text-anchor="middle" fill="#f9e2af" font-size="10">2</text>

  <!-- Done -->
  <rect x="544" y="78" width="247" height="26" rx="4" fill="#45475a"/>
  <text x="630" y="96" fill="#a6e3a1" font-size="12" font-weight="bold">DONE</text>
  <rect x="754" y="83" width="28" height="16" rx="8" fill="#a6e3a1" opacity="0.2"/>
  <text x="768" y="95" text-anchor="middle" fill="#a6e3a1" font-size="10">2</text>

  <!-- TO DO cards -->
  <!-- Card 1 -->
  <rect x="15" y="114" width="237" height="72" rx="6" fill="#313244" stroke="#45475a" stroke-width="1"/>
  <text x="25" y="134" fill="#f38ba8" font-size="11">&#x1F53A; High</text>
  <text x="25" y="152" fill="#cdd6f4" font-size="12">Write plugin documentation</text>
  <text x="25" y="170" fill="#585b70" font-size="10">#docs  #plugins</text>
  <rect x="195" y="160" width="48" height="16" rx="3" fill="#f38ba8" opacity="0.15"/>
  <text x="219" y="171" text-anchor="middle" fill="#f38ba8" font-size="9">Mar 10</text>

  <!-- Card 2 -->
  <rect x="15" y="194" width="237" height="72" rx="6" fill="#313244" stroke="#45475a" stroke-width="1"/>
  <text x="25" y="214" fill="#f9e2af" font-size="11">&#x1F53C; Medium</text>
  <text x="25" y="232" fill="#cdd6f4" font-size="12">Implement PDF export</text>
  <text x="25" y="250" fill="#585b70" font-size="10">#export  #feature</text>
  <rect x="195" y="240" width="48" height="16" rx="3" fill="#f9e2af" opacity="0.15"/>
  <text x="219" y="251" text-anchor="middle" fill="#f9e2af" font-size="9">Mar 12</text>

  <!-- Card 3 -->
  <rect x="15" y="274" width="237" height="72" rx="6" fill="#313244" stroke="#45475a" stroke-width="1"/>
  <text x="25" y="294" fill="#f38ba8" font-size="11">&#x1F53A; High</text>
  <text x="25" y="312" fill="#cdd6f4" font-size="12">Fix sidebar scroll issue</text>
  <text x="25" y="330" fill="#585b70" font-size="10">#bug  #sidebar</text>
  <rect x="195" y="320" width="48" height="16" rx="3" fill="#f38ba8" opacity="0.15"/>
  <text x="219" y="331" text-anchor="middle" fill="#f38ba8" font-size="9">Mar 09</text>

  <!-- IN PROGRESS cards -->
  <!-- Card 1 -->
  <rect x="282" y="114" width="237" height="72" rx="6" fill="#313244" stroke="#cba6f7" stroke-width="1.5"/>
  <text x="292" y="134" fill="#f9e2af" font-size="11">&#x1F53C; Medium</text>
  <text x="292" y="152" fill="#cdd6f4" font-size="12">Refactor theme system</text>
  <text x="292" y="170" fill="#585b70" font-size="10">#themes  #refactor</text>
  <rect x="462" y="160" width="48" height="16" rx="3" fill="#cba6f7" opacity="0.2"/>
  <text x="486" y="171" text-anchor="middle" fill="#cba6f7" font-size="9">WIP</text>

  <!-- Card 2 -->
  <rect x="282" y="194" width="237" height="72" rx="6" fill="#313244" stroke="#45475a" stroke-width="1"/>
  <text x="292" y="214" fill="#f38ba8" font-size="11">&#x1F53A; High</text>
  <text x="292" y="232" fill="#cdd6f4" font-size="12">Add vim keybindings</text>
  <text x="292" y="250" fill="#585b70" font-size="10">#vim  #editor</text>
  <rect x="462" y="240" width="48" height="16" rx="3" fill="#f9e2af" opacity="0.15"/>
  <text x="486" y="251" text-anchor="middle" fill="#f9e2af" font-size="9">60%</text>

  <!-- DONE cards -->
  <!-- Card 1 -->
  <rect x="549" y="114" width="237" height="72" rx="6" fill="#313244" stroke="#a6e3a1" stroke-width="1" opacity="0.7"/>
  <text x="559" y="134" fill="#a6e3a1" font-size="11">&#x2705; Complete</text>
  <text x="559" y="152" fill="#a6adc8" font-size="12" text-decoration="line-through">Setup CI pipeline</text>
  <text x="559" y="170" fill="#585b70" font-size="10">#devops  #ci</text>

  <!-- Card 2 -->
  <rect x="549" y="194" width="237" height="72" rx="6" fill="#313244" stroke="#a6e3a1" stroke-width="1" opacity="0.7"/>
  <text x="559" y="214" fill="#a6e3a1" font-size="11">&#x2705; Complete</text>
  <text x="559" y="232" fill="#a6adc8" font-size="12" text-decoration="line-through">Design splash screen</text>
  <text x="559" y="250" fill="#585b70" font-size="10">#ui  #design</text>

  <!-- Footer / status bar -->
  <rect x="0" y="460" width="800" height="40" rx="0" fill="#11111b"/>
  <rect x="0" y="490" width="800" height="10" rx="10" fill="#11111b"/>
  <text x="20" y="484" fill="#585b70" font-size="11">n new  e edit  d done  &#x2190;&#x2192; move  / filter  q quit</text>
  <text x="680" y="484" fill="#cba6f7" font-size="11">Ctrl+T Tasks</text>
</svg>