<svg xmlns="http://www.w3.org/2000/svg" width="800" height="500" viewBox="0 0 800 500">
  <defs>
    <style>
      @import url('https://fonts.googleapis.com/css2?family=JetBrains+Mono:wght@400;700&amp;display=swap');
      text { font-family: "JetBrains Mono", "Fira Code", "Cascadia Code", monospace; }
    </style>
  </defs>

  <!-- Window shadow -->
  <rect x="4" y="4" width="800" height="500" rx="10" fill="#000" opacity="0.3"/>

  <!-- Window background -->
  <rect width="800" height="500" rx="10" fill="#1e1e2e"/>

  <!-- Title bar -->
  <rect width="800" height="38" rx="10" fill="#181825"/>
  <rect y="28" width="800" height="10" fill="#181825"/>

  <!-- Traffic lights -->
  <circle cx="20" cy="19" r="6" fill="#f38ba8"/>
  <circle cx="40" cy="19" r="6" fill="#f9e2af"/>
  <circle cx="60" cy="19" r="6" fill="#a6e3a1"/>

  <!-- Title text -->
  <text x="400" y="23" text-anchor="middle" fill="#6c7086" font-size="12">granit ~/vault</text>

  <!-- Header -->
  <rect x="0" y="38" width="800" height="34" fill="#11111b"/>
  <text x="20" y="60" fill="#cba6f7" font-size="14" font-weight="bold">35 Built-in Themes</text>
  <text x="230" y="60" fill="#585b70" font-size="11">Switch instantly with Ctrl+, or command palette</text>

  <!-- 4x4 Grid of theme cards -->
  <!-- Row 1 -->
  <!-- Catppuccin Mocha -->
  <rect x="20" y="84" width="180" height="88" rx="8" fill="#313244" stroke="#cba6f7" stroke-width="2"/>
  <rect x="20" y="84" width="180" height="28" rx="8" fill="#cba6f7" opacity="0.15"/>
  <rect x="20" y="104" width="180" height="8" fill="#313244"/>
  <text x="110" y="103" text-anchor="middle" fill="#cba6f7" font-size="11" font-weight="bold">catppuccin-mocha</text>
  <rect x="32" y="122" width="156" height="8" rx="2" fill="#1e1e2e"/>
  <text x="36" y="129" fill="#cba6f7" font-size="7"># Heading</text>
  <rect x="32" y="134" width="156" height="8" rx="2" fill="#1e1e2e"/>
  <text x="36" y="141" fill="#cdd6f4" font-size="7">Some text content</text>
  <rect x="32" y="148" width="80" height="14" rx="3" fill="#cba6f7" opacity="0.2"/>
  <text x="72" y="158" text-anchor="middle" fill="#cba6f7" font-size="8">Active</text>
  <circle cx="185" cy="97" r="4" fill="#a6e3a1"/>

  <!-- Tokyo Night -->
  <rect x="210" y="84" width="180" height="88" rx="8" fill="#1a1b26" stroke="#7aa2f7" stroke-width="1.5"/>
  <rect x="210" y="84" width="180" height="28" rx="8" fill="#7aa2f7" opacity="0.12"/>
  <rect x="210" y="104" width="180" height="8" fill="#1a1b26"/>
  <text x="300" y="103" text-anchor="middle" fill="#7aa2f7" font-size="11" font-weight="bold">tokyo-night</text>
  <rect x="222" y="122" width="156" height="8" rx="2" fill="#16161e"/>
  <text x="226" y="129" fill="#7aa2f7" font-size="7"># Heading</text>
  <rect x="222" y="134" width="156" height="8" rx="2" fill="#16161e"/>
  <text x="226" y="141" fill="#a9b1d6" font-size="7">Some text content</text>
  <rect x="222" y="148" width="60" height="14" rx="3" fill="#7aa2f7" opacity="0.15"/>
  <text x="252" y="158" text-anchor="middle" fill="#7aa2f7" font-size="8">Preview</text>

  <!-- Gruvbox Dark -->
  <rect x="400" y="84" width="180" height="88" rx="8" fill="#282828" stroke="#d79921" stroke-width="1.5"/>
  <rect x="400" y="84" width="180" height="28" rx="8" fill="#d79921" opacity="0.12"/>
  <rect x="400" y="104" width="180" height="8" fill="#282828"/>
  <text x="490" y="103" text-anchor="middle" fill="#d79921" font-size="11" font-weight="bold">gruvbox-dark</text>
  <rect x="412" y="122" width="156" height="8" rx="2" fill="#1d2021"/>
  <text x="416" y="129" fill="#d79921" font-size="7"># Heading</text>
  <rect x="412" y="134" width="156" height="8" rx="2" fill="#1d2021"/>
  <text x="416" y="141" fill="#ebdbb2" font-size="7">Some text content</text>
  <rect x="412" y="148" width="60" height="14" rx="3" fill="#d79921" opacity="0.15"/>
  <text x="442" y="158" text-anchor="middle" fill="#d79921" font-size="8">Preview</text>

  <!-- Nord -->
  <rect x="590" y="84" width="180" height="88" rx="8" fill="#2e3440" stroke="#88c0d0" stroke-width="1.5"/>
  <rect x="590" y="84" width="180" height="28" rx="8" fill="#88c0d0" opacity="0.12"/>
  <rect x="590" y="104" width="180" height="8" fill="#2e3440"/>
  <text x="680" y="103" text-anchor="middle" fill="#88c0d0" font-size="11" font-weight="bold">nord</text>
  <rect x="602" y="122" width="156" height="8" rx="2" fill="#242933"/>
  <text x="606" y="129" fill="#88c0d0" font-size="7"># Heading</text>
  <rect x="602" y="134" width="156" height="8" rx="2" fill="#242933"/>
  <text x="606" y="141" fill="#d8dee9" font-size="7">Some text content</text>
  <rect x="602" y="148" width="60" height="14" rx="3" fill="#88c0d0" opacity="0.15"/>
  <text x="632" y="158" text-anchor="middle" fill="#88c0d0" font-size="8">Preview</text>

  <!-- Row 2 -->
  <!-- Dracula -->
  <rect x="20" y="182" width="180" height="88" rx="8" fill="#282a36" stroke="#ff79c6" stroke-width="1.5"/>
  <rect x="20" y="182" width="180" height="28" rx="8" fill="#ff79c6" opacity="0.12"/>
  <rect x="20" y="202" width="180" height="8" fill="#282a36"/>
  <text x="110" y="201" text-anchor="middle" fill="#ff79c6" font-size="11" font-weight="bold">dracula</text>
  <rect x="32" y="220" width="156" height="8" rx="2" fill="#21222c"/>
  <text x="36" y="227" fill="#ff79c6" font-size="7"># Heading</text>
  <rect x="32" y="232" width="156" height="8" rx="2" fill="#21222c"/>
  <text x="36" y="239" fill="#f8f8f2" font-size="7">Some text content</text>
  <rect x="32" y="246" width="60" height="14" rx="3" fill="#ff79c6" opacity="0.15"/>
  <text x="62" y="256" text-anchor="middle" fill="#ff79c6" font-size="8">Preview</text>

  <!-- Rose Pine -->
  <rect x="210" y="182" width="180" height="88" rx="8" fill="#191724" stroke="#ebbcba" stroke-width="1.5"/>
  <rect x="210" y="182" width="180" height="28" rx="8" fill="#ebbcba" opacity="0.12"/>
  <rect x="210" y="202" width="180" height="8" fill="#191724"/>
  <text x="300" y="201" text-anchor="middle" fill="#ebbcba" font-size="11" font-weight="bold">rose-pine</text>
  <rect x="222" y="220" width="156" height="8" rx="2" fill="#1f1d2e"/>
  <text x="226" y="227" fill="#ebbcba" font-size="7"># Heading</text>
  <rect x="222" y="232" width="156" height="8" rx="2" fill="#1f1d2e"/>
  <text x="226" y="239" fill="#e0def4" font-size="7">Some text content</text>
  <rect x="222" y="246" width="60" height="14" rx="3" fill="#ebbcba" opacity="0.15"/>
  <text x="252" y="256" text-anchor="middle" fill="#ebbcba" font-size="8">Preview</text>

  <!-- Synthwave 84 -->
  <rect x="400" y="182" width="180" height="88" rx="8" fill="#262335" stroke="#f97e72" stroke-width="1.5"/>
  <rect x="400" y="182" width="180" height="28" rx="8" fill="#f97e72" opacity="0.12"/>
  <rect x="400" y="202" width="180" height="8" fill="#262335"/>
  <text x="490" y="201" text-anchor="middle" fill="#f97e72" font-size="11" font-weight="bold">synthwave-84</text>
  <rect x="412" y="220" width="156" height="8" rx="2" fill="#1e1a2e"/>
  <text x="416" y="227" fill="#f97e72" font-size="7"># Heading</text>
  <rect x="412" y="232" width="156" height="8" rx="2" fill="#1e1a2e"/>
  <text x="416" y="239" fill="#e0d0ff" font-size="7">Some text content</text>
  <rect x="412" y="246" width="60" height="14" rx="3" fill="#f97e72" opacity="0.15"/>
  <text x="442" y="256" text-anchor="middle" fill="#f97e72" font-size="8">Preview</text>

  <!-- Matrix -->
  <rect x="590" y="182" width="180" height="88" rx="8" fill="#0a0a0a" stroke="#00ff41" stroke-width="1.5"/>
  <rect x="590" y="182" width="180" height="28" rx="8" fill="#00ff41" opacity="0.1"/>
  <rect x="590" y="202" width="180" height="8" fill="#0a0a0a"/>
  <text x="680" y="201" text-anchor="middle" fill="#00ff41" font-size="11" font-weight="bold">matrix</text>
  <rect x="602" y="220" width="156" height="8" rx="2" fill="#050505"/>
  <text x="606" y="227" fill="#00ff41" font-size="7"># Heading</text>
  <rect x="602" y="232" width="156" height="8" rx="2" fill="#050505"/>
  <text x="606" y="239" fill="#00cc33" font-size="7">Some text content</text>
  <rect x="602" y="246" width="60" height="14" rx="3" fill="#00ff41" opacity="0.12"/>
  <text x="632" y="256" text-anchor="middle" fill="#00ff41" font-size="8">Preview</text>

  <!-- Row 3 -->
  <!-- Cobalt2 -->
  <rect x="20" y="280" width="180" height="88" rx="8" fill="#193549" stroke="#ffc600" stroke-width="1.5"/>
  <rect x="20" y="280" width="180" height="28" rx="8" fill="#ffc600" opacity="0.1"/>
  <rect x="20" y="300" width="180" height="8" fill="#193549"/>
  <text x="110" y="299" text-anchor="middle" fill="#ffc600" font-size="11" font-weight="bold">cobalt2</text>
  <rect x="32" y="318" width="156" height="8" rx="2" fill="#122738"/>
  <text x="36" y="325" fill="#ffc600" font-size="7"># Heading</text>
  <rect x="32" y="330" width="156" height="8" rx="2" fill="#122738"/>
  <text x="36" y="337" fill="#e1efff" font-size="7">Some text content</text>
  <rect x="32" y="344" width="60" height="14" rx="3" fill="#ffc600" opacity="0.12"/>
  <text x="62" y="354" text-anchor="middle" fill="#ffc600" font-size="8">Preview</text>

  <!-- Amber -->
  <rect x="210" y="280" width="180" height="88" rx="8" fill="#1a1200" stroke="#ffb000" stroke-width="1.5"/>
  <rect x="210" y="280" width="180" height="28" rx="8" fill="#ffb000" opacity="0.1"/>
  <rect x="210" y="300" width="180" height="8" fill="#1a1200"/>
  <text x="300" y="299" text-anchor="middle" fill="#ffb000" font-size="11" font-weight="bold">amber</text>
  <rect x="222" y="318" width="156" height="8" rx="2" fill="#120d00"/>
  <text x="226" y="325" fill="#ffb000" font-size="7"># Heading</text>
  <rect x="222" y="330" width="156" height="8" rx="2" fill="#120d00"/>
  <text x="226" y="337" fill="#ffd580" font-size="7">Some text content</text>
  <rect x="222" y="344" width="60" height="14" rx="3" fill="#ffb000" opacity="0.12"/>
  <text x="252" y="354" text-anchor="middle" fill="#ffb000" font-size="8">Preview</text>

  <!-- Solarized Dark -->
  <rect x="400" y="280" width="180" height="88" rx="8" fill="#002b36" stroke="#268bd2" stroke-width="1.5"/>
  <rect x="400" y="280" width="180" height="28" rx="8" fill="#268bd2" opacity="0.12"/>
  <rect x="400" y="300" width="180" height="8" fill="#002b36"/>
  <text x="490" y="299" text-anchor="middle" fill="#268bd2" font-size="11" font-weight="bold">solarized-dark</text>
  <rect x="412" y="318" width="156" height="8" rx="2" fill="#001f28"/>
  <text x="416" y="325" fill="#268bd2" font-size="7"># Heading</text>
  <rect x="412" y="330" width="156" height="8" rx="2" fill="#001f28"/>
  <text x="416" y="337" fill="#839496" font-size="7">Some text content</text>
  <rect x="412" y="344" width="60" height="14" rx="3" fill="#268bd2" opacity="0.12"/>
  <text x="442" y="354" text-anchor="middle" fill="#268bd2" font-size="8">Preview</text>

  <!-- Kanagawa -->
  <rect x="590" y="280" width="180" height="88" rx="8" fill="#1f1f28" stroke="#7e9cd8" stroke-width="1.5"/>
  <rect x="590" y="280" width="180" height="28" rx="8" fill="#7e9cd8" opacity="0.12"/>
  <rect x="590" y="300" width="180" height="8" fill="#1f1f28"/>
  <text x="680" y="299" text-anchor="middle" fill="#7e9cd8" font-size="11" font-weight="bold">kanagawa</text>
  <rect x="602" y="318" width="156" height="8" rx="2" fill="#16161d"/>
  <text x="606" y="325" fill="#7e9cd8" font-size="7"># Heading</text>
  <rect x="602" y="330" width="156" height="8" rx="2" fill="#16161d"/>
  <text x="606" y="337" fill="#dcd7ba" font-size="7">Some text content</text>
  <rect x="602" y="344" width="60" height="14" rx="3" fill="#7e9cd8" opacity="0.12"/>
  <text x="632" y="354" text-anchor="middle" fill="#7e9cd8" font-size="8">Preview</text>

  <!-- Row 4 -->
  <!-- Monokai Pro -->
  <rect x="20" y="378" width="180" height="88" rx="8" fill="#2d2a2e" stroke="#fc9867" stroke-width="1.5"/>
  <rect x="20" y="378" width="180" height="28" rx="8" fill="#fc9867" opacity="0.12"/>
  <rect x="20" y="398" width="180" height="8" fill="#2d2a2e"/>
  <text x="110" y="397" text-anchor="middle" fill="#fc9867" font-size="11" font-weight="bold">monokai-pro</text>
  <rect x="32" y="416" width="156" height="8" rx="2" fill="#221f22"/>
  <text x="36" y="423" fill="#fc9867" font-size="7"># Heading</text>
  <rect x="32" y="428" width="156" height="8" rx="2" fill="#221f22"/>
  <text x="36" y="435" fill="#fcfcfa" font-size="7">Some text content</text>
  <rect x="32" y="442" width="60" height="14" rx="3" fill="#fc9867" opacity="0.12"/>
  <text x="62" y="452" text-anchor="middle" fill="#fc9867" font-size="8">Preview</text>

  <!-- Iceberg -->
  <rect x="210" y="378" width="180" height="88" rx="8" fill="#161821" stroke="#84a0c6" stroke-width="1.5"/>
  <rect x="210" y="378" width="180" height="28" rx="8" fill="#84a0c6" opacity="0.12"/>
  <rect x="210" y="398" width="180" height="8" fill="#161821"/>
  <text x="300" y="397" text-anchor="middle" fill="#84a0c6" font-size="11" font-weight="bold">iceberg</text>
  <rect x="222" y="416" width="156" height="8" rx="2" fill="#0f1117"/>
  <text x="226" y="423" fill="#84a0c6" font-size="7"># Heading</text>
  <rect x="222" y="428" width="156" height="8" rx="2" fill="#0f1117"/>
  <text x="226" y="435" fill="#c6c8d1" font-size="7">Some text content</text>
  <rect x="222" y="442" width="60" height="14" rx="3" fill="#84a0c6" opacity="0.12"/>
  <text x="252" y="452" text-anchor="middle" fill="#84a0c6" font-size="8">Preview</text>

  <!-- Palenight -->
  <rect x="400" y="378" width="180" height="88" rx="8" fill="#292d3e" stroke="#c792ea" stroke-width="1.5"/>
  <rect x="400" y="378" width="180" height="28" rx="8" fill="#c792ea" opacity="0.12"/>
  <rect x="400" y="398" width="180" height="8" fill="#292d3e"/>
  <text x="490" y="397" text-anchor="middle" fill="#c792ea" font-size="11" font-weight="bold">palenight</text>
  <rect x="412" y="416" width="156" height="8" rx="2" fill="#202331"/>
  <text x="416" y="423" fill="#c792ea" font-size="7"># Heading</text>
  <rect x="412" y="428" width="156" height="8" rx="2" fill="#202331"/>
  <text x="416" y="435" fill="#a6accd" font-size="7">Some text content</text>
  <rect x="412" y="442" width="60" height="14" rx="3" fill="#c792ea" opacity="0.12"/>
  <text x="442" y="452" text-anchor="middle" fill="#c792ea" font-size="8">Preview</text>

  <!-- Nightfox -->
  <rect x="590" y="378" width="180" height="88" rx="8" fill="#192330" stroke="#719cd6" stroke-width="1.5"/>
  <rect x="590" y="378" width="180" height="28" rx="8" fill="#719cd6" opacity="0.12"/>
  <rect x="590" y="398" width="180" height="8" fill="#192330"/>
  <text x="680" y="397" text-anchor="middle" fill="#719cd6" font-size="11" font-weight="bold">nightfox</text>
  <rect x="602" y="416" width="156" height="8" rx="2" fill="#131a24"/>
  <text x="606" y="423" fill="#719cd6" font-size="7"># Heading</text>
  <rect x="602" y="428" width="156" height="8" rx="2" fill="#131a24"/>
  <text x="606" y="435" fill="#cdcecf" font-size="7">Some text content</text>
  <rect x="602" y="442" width="60" height="14" rx="3" fill="#719cd6" opacity="0.12"/>
  <text x="632" y="452" text-anchor="middle" fill="#719cd6" font-size="8">Preview</text>
</svg>