<svg xmlns="http://www.w3.org/2000/svg" width="800" height="500" viewBox="0 0 800 500">
  <defs>
    <style>
      @import url('https://fonts.googleapis.com/css2?family=JetBrains+Mono:wght@400;700&amp;display=swap');
      text { font-family: "JetBrains Mono", "Fira Code", "Cascadia Code", monospace; }
    </style>
  </defs>

  <!-- Window shadow -->
  <rect x="4" y="4" width="800" height="500" rx="10" fill="#000" opacity="0.3"/>

  <!-- Window background -->
  <rect width="800" height="500" rx="10" fill="#1e1e2e"/>

  <!-- Title bar -->
  <rect width="800" height="38" rx="10" fill="#181825"/>
  <rect y="28" width="800" height="10" fill="#181825"/>

  <!-- Traffic lights -->
  <circle cx="20" cy="19" r="6" fill="#f38ba8"/>
  <circle cx="40" cy="19" r="6" fill="#f9e2af"/>
  <circle cx="60" cy="19" r="6" fill="#a6e3a1"/>

  <!-- Title text -->
  <text x="400" y="23" text-anchor="middle" fill="#6c7086" font-size="12">granit ~/vault</text>

  <!-- Calendar header -->
  <rect x="0" y="38" width="560" height="36" fill="#11111b"/>
  <text x="20" y="62" fill="#f38ba8" font-size="11">&#x25C0;</text>
  <text x="230" y="62" text-anchor="middle" fill="#cba6f7" font-size="15" font-weight="bold">March 2026</text>
  <text x="440" y="62" fill="#f38ba8" font-size="11">&#x25B6;</text>
  <text x="480" y="62" fill="#585b70" font-size="10">Month</text>
  <text x="520" y="62" fill="#6c7086" font-size="10">Week</text>

  <!-- Agenda sidebar header -->
  <rect x="560" y="38" width="240" height="36" fill="#11111b"/>
  <line x1="560" y1="38" x2="560" y2="500" stroke="#313244" stroke-width="1"/>
  <text x="580" y="62" fill="#f9e2af" font-size="13" font-weight="bold">Agenda</text>
  <text x="720" y="62" fill="#585b70" font-size="10">3 items</text>

  <!-- Day of week headers -->
  <rect x="0" y="74" width="560" height="24" fill="#181825"/>
  <text x="48" y="90" text-anchor="middle" fill="#f38ba8" font-size="11">Mon</text>
  <text x="128" y="90" text-anchor="middle" fill="#6c7086" font-size="11">Tue</text>
  <text x="208" y="90" text-anchor="middle" fill="#6c7086" font-size="11">Wed</text>
  <text x="288" y="90" text-anchor="middle" fill="#6c7086" font-size="11">Thu</text>
  <text x="368" y="90" text-anchor="middle" fill="#6c7086" font-size="11">Fri</text>
  <text x="448" y="90" text-anchor="middle" fill="#89b4fa" font-size="11">Sat</text>
  <text x="528" y="90" text-anchor="middle" fill="#89b4fa" font-size="11">Sun</text>

  <!-- Calendar grid lines -->
  <!-- Horizontal -->
  <line x1="0" y1="98" x2="560" y2="98" stroke="#313244" stroke-width="0.5"/>
  <line x1="0" y1="168" x2="560" y2="168" stroke="#313244" stroke-width="0.5"/>
  <line x1="0" y1="238" x2="560" y2="238" stroke="#313244" stroke-width="0.5"/>
  <line x1="0" y1="308" x2="560" y2="308" stroke="#313244" stroke-width="0.5"/>
  <line x1="0" y1="378" x2="560" y2="378" stroke="#313244" stroke-width="0.5"/>
  <line x1="0" y1="448" x2="560" y2="448" stroke="#313244" stroke-width="0.5"/>

  <!-- Vertical -->
  <line x1="80" y1="74" x2="80" y2="470" stroke="#313244" stroke-width="0.5"/>
  <line x1="160" y1="74" x2="160" y2="470" stroke="#313244" stroke-width="0.5"/>
  <line x1="240" y1="74" x2="240" y2="470" stroke="#313244" stroke-width="0.5"/>
  <line x1="320" y1="74" x2="320" y2="470" stroke="#313244" stroke-width="0.5"/>
  <line x1="400" y1="74" x2="400" y2="470" stroke="#313244" stroke-width="0.5"/>
  <line x1="480" y1="74" x2="480" y2="470" stroke="#313244" stroke-width="0.5"/>

  <!-- Week 1 (Feb 23-Mar 1) — previous month days dimmed -->
  <!-- Feb 23 Mon -->
  <text x="48" y="118" text-anchor="middle" fill="#45475a" font-size="12">23</text>
  <!-- Feb 24 Tue -->
  <text x="128" y="118" text-anchor="middle" fill="#45475a" font-size="12">24</text>
  <!-- Feb 25 Wed -->
  <text x="208" y="118" text-anchor="middle" fill="#45475a" font-size="12">25</text>
  <!-- Feb 26 Thu -->
  <text x="288" y="118" text-anchor="middle" fill="#45475a" font-size="12">26</text>
  <!-- Feb 27 Fri -->
  <text x="368" y="118" text-anchor="middle" fill="#45475a" font-size="12">27</text>
  <!-- Feb 28 Sat -->
  <text x="448" y="118" text-anchor="middle" fill="#45475a" font-size="12">28</text>
  <!-- Mar 1 Sun -->
  <text x="528" y="118" text-anchor="middle" fill="#cdd6f4" font-size="12">1</text>

  <!-- Week 2 (Mar 2-8) -->
  <text x="48" y="188" text-anchor="middle" fill="#cdd6f4" font-size="12">2</text>
  <text x="128" y="188" text-anchor="middle" fill="#cdd6f4" font-size="12">3</text>
  <circle cx="128" cy="196" r="3" fill="#f38ba8"/>
  <text x="208" y="188" text-anchor="middle" fill="#cdd6f4" font-size="12">4</text>
  <text x="288" y="188" text-anchor="middle" fill="#cdd6f4" font-size="12">5</text>
  <circle cx="288" cy="196" r="3" fill="#a6e3a1"/>
  <text x="368" y="188" text-anchor="middle" fill="#cdd6f4" font-size="12">6</text>
  <text x="448" y="188" text-anchor="middle" fill="#cdd6f4" font-size="12">7</text>

  <!-- Today: Mar 8 (highlighted) -->
  <rect x="496" y="174" width="64" height="64" rx="6" fill="#cba6f7" opacity="0.12"/>
  <rect x="496" y="174" width="64" height="64" rx="6" fill="none" stroke="#cba6f7" stroke-width="2"/>
  <text x="528" y="188" text-anchor="middle" fill="#cba6f7" font-size="12" font-weight="bold">8</text>
  <circle cx="520" cy="196" r="3" fill="#f9e2af"/>
  <circle cx="536" cy="196" r="3" fill="#cba6f7"/>

  <!-- Week 3 (Mar 9-15) -->
  <text x="48" y="258" text-anchor="middle" fill="#cdd6f4" font-size="12">9</text>
  <text x="128" y="258" text-anchor="middle" fill="#cdd6f4" font-size="12">10</text>
  <circle cx="128" cy="266" r="3" fill="#f38ba8"/>
  <text x="208" y="258" text-anchor="middle" fill="#cdd6f4" font-size="12">11</text>
  <text x="288" y="258" text-anchor="middle" fill="#cdd6f4" font-size="12">12</text>
  <circle cx="288" cy="266" r="3" fill="#f9e2af"/>
  <text x="368" y="258" text-anchor="middle" fill="#cdd6f4" font-size="12">13</text>
  <circle cx="368" cy="266" r="3" fill="#89b4fa"/>
  <text x="448" y="258" text-anchor="middle" fill="#cdd6f4" font-size="12">14</text>
  <text x="528" y="258" text-anchor="middle" fill="#cdd6f4" font-size="12">15</text>

  <!-- Week 4 (Mar 16-22) -->
  <text x="48" y="328" text-anchor="middle" fill="#cdd6f4" font-size="12">16</text>
  <text x="128" y="328" text-anchor="middle" fill="#cdd6f4" font-size="12">17</text>
  <text x="208" y="328" text-anchor="middle" fill="#cdd6f4" font-size="12">18</text>
  <circle cx="208" cy="336" r="3" fill="#a6e3a1"/>
  <text x="288" y="328" text-anchor="middle" fill="#cdd6f4" font-size="12">19</text>
  <text x="368" y="328" text-anchor="middle" fill="#cdd6f4" font-size="12">20</text>
  <circle cx="368" cy="336" r="3" fill="#f38ba8"/>
  <text x="448" y="328" text-anchor="middle" fill="#cdd6f4" font-size="12">21</text>
  <text x="528" y="328" text-anchor="middle" fill="#cdd6f4" font-size="12">22</text>

  <!-- Week 5 (Mar 23-29) -->
  <text x="48" y="398" text-anchor="middle" fill="#cdd6f4" font-size="12">23</text>
  <text x="128" y="398" text-anchor="middle" fill="#cdd6f4" font-size="12">24</text>
  <text x="208" y="398" text-anchor="middle" fill="#cdd6f4" font-size="12">25</text>
  <circle cx="208" cy="406" r="3" fill="#f9e2af"/>
  <text x="288" y="398" text-anchor="middle" fill="#cdd6f4" font-size="12">26</text>
  <text x="368" y="398" text-anchor="middle" fill="#cdd6f4" font-size="12">27</text>
  <text x="448" y="398" text-anchor="middle" fill="#cdd6f4" font-size="12">28</text>
  <text x="528" y="398" text-anchor="middle" fill="#cdd6f4" font-size="12">29</text>

  <!-- Week 6 (Mar 30-31 + Apr) -->
  <text x="48" y="460" text-anchor="middle" fill="#cdd6f4" font-size="12">30</text>
  <text x="128" y="460" text-anchor="middle" fill="#cdd6f4" font-size="12">31</text>
  <text x="208" y="460" text-anchor="middle" fill="#45475a" font-size="12">1</text>
  <text x="288" y="460" text-anchor="middle" fill="#45475a" font-size="12">2</text>
  <text x="368" y="460" text-anchor="middle" fill="#45475a" font-size="12">3</text>
  <text x="448" y="460" text-anchor="middle" fill="#45475a" font-size="12">4</text>
  <text x="528" y="460" text-anchor="middle" fill="#45475a" font-size="12">5</text>

  <!-- Agenda sidebar content -->
  <!-- Today section -->
  <text x="580" y="92" fill="#cba6f7" font-size="10" font-weight="bold">TODAY - Mar 8</text>

  <!-- Agenda item 1 -->
  <rect x="572" y="100" width="216" height="52" rx="5" fill="#313244"/>
  <rect x="572" y="100" width="4" height="52" rx="2" fill="#f9e2af"/>
  <text x="586" y="117" fill="#f9e2af" font-size="10">10:00</text>
  <text x="630" y="117" fill="#cdd6f4" font-size="11">Weekly Review</text>
  <text x="586" y="135" fill="#585b70" font-size="9">Review notes and plan next</text>
  <text x="586" y="145" fill="#585b70" font-size="9">week's priorities</text>

  <!-- Agenda item 2 -->
  <rect x="572" y="160" width="216" height="52" rx="5" fill="#313244"/>
  <rect x="572" y="160" width="4" height="52" rx="2" fill="#cba6f7"/>
  <text x="586" y="177" fill="#cba6f7" font-size="10">14:00</text>
  <text x="630" y="177" fill="#cdd6f4" font-size="11">Write Plugin Docs</text>
  <text x="586" y="195" fill="#585b70" font-size="9">Document the plugin API</text>
  <text x="586" y="205" fill="#585b70" font-size="9">and hook system</text>

  <!-- Upcoming section -->
  <text x="580" y="238" fill="#6c7086" font-size="10" font-weight="bold">UPCOMING</text>

  <!-- Agenda item 3 -->
  <rect x="572" y="246" width="216" height="52" rx="5" fill="#313244"/>
  <rect x="572" y="246" width="4" height="52" rx="2" fill="#f38ba8"/>
  <text x="586" y="263" fill="#f38ba8" font-size="10">Mar 10</text>
  <text x="640" y="263" fill="#cdd6f4" font-size="11">Plugin Deadline</text>
  <text x="586" y="281" fill="#585b70" font-size="9">Finish plugin documentation</text>
  <text x="586" y="291" fill="#585b70" font-size="9">before release</text>

  <!-- Tasks section in agenda -->
  <text x="580" y="326" fill="#6c7086" font-size="10" font-weight="bold">TASKS FROM NOTES</text>

  <rect x="572" y="334" width="216" height="32" rx="4" fill="#313244"/>
  <text x="586" y="354" fill="#a6e3a1" font-size="11">&#x2611; Review PR #42</text>

  <rect x="572" y="372" width="216" height="32" rx="4" fill="#313244"/>
  <text x="586" y="392" fill="#6c7086" font-size="11">&#x2610; Update changelog</text>

  <rect x="572" y="410" width="216" height="32" rx="4" fill="#313244"/>
  <text x="586" y="430" fill="#6c7086" font-size="11">&#x2610; Fix #38 scroll bug</text>

  <!-- Footer -->
  <rect x="0" y="470" width="800" height="30" fill="#11111b"/>
  <rect x="0" y="490" width="800" height="10" rx="10" fill="#11111b"/>
  <text x="20" y="490" fill="#585b70" font-size="11">&#x2190;&#x2192; month  t today  w week  a agenda  n new event  q close</text>
  <text x="680" y="490" fill="#cba6f7" font-size="11">Ctrl+L Cal</text>
</svg>